<?xml version="1.0" encoding="UTF-8"?><svg id="a" xmlns="http://www.w3.org/2000/svg" viewBox="0 0 525.42 76.92"><defs><style>.b{fill:#f6ad74;}.c{fill:#fff;}.d{fill:#f0812b;}.e{fill:#8f3a96;}.f{fill:#ced977;}.g{fill:#bcce3a;}.h{fill:#af7db7;}.i{fill:#414090;}.j{fill:#615c9f;}</style></defs><polygon class="c" points="146.76 76.92 146.05 .24 147.1 .23 147.81 76.91 146.76 76.92"/><g><path class="c" d="M218.74,43.58c-.45-5.96-.97-13.28-.94-17.59h-.18c-1.39,4.32-3.01,8.94-5.22,14.86l-8.24,21.73h-1.95l-8-21.08c-2.29-6.19-4.03-10.96-5.24-15.32h-.18c-.03,4.67-.28,11.58-.71,18.2l-1.12,18.31-2.78,.02,2.63-39.82,3.25-.02,8.72,22.86c1.86,5.07,3.31,9.07,4.46,12.9h.12c1.04-3.67,2.43-7.58,4.4-12.9l8.71-23.03,3.37-.02,2.98,39.78-2.78,.02-1.31-18.89Z"/><path class="c" d="M255.79,47.76c.07,10.63-7.16,15.17-13.48,15.21-7.32,.05-13.03-5.64-13.09-14.5-.07-9.74,6.28-15.1,13.3-15.15,7.85-.05,13.21,5.76,13.27,14.44Zm-23.74,.51c.05,7.09,4.63,12.37,10.42,12.33,5.91-.04,10.54-5.38,10.49-12.65-.03-5.2-3.03-12.38-10.48-12.33-7.2,.05-10.47,6.57-10.43,12.65Z"/><path class="c" d="M262.85,62.18c.1-2.01,.21-4.49,.19-6.62l-.23-35.31,2.78-.02,.12,18.84h.12c1.86-3.67,5.33-5.94,10.35-5.98,7.14-.05,12.15,5.88,12.2,14.45,.07,10.1-6.34,15.16-12.54,15.2-4.55,.03-7.93-1.78-10.2-5.72h-.12l-.14,5.14-2.54,.02Zm2.94-10.95c0,.65,.13,1.36,.25,2.06,1.27,4.3,4.95,7.11,9.38,7.08,6.5-.04,10.18-5.38,10.13-12.77-.04-6.5-3.63-12.26-10.06-12.22-4.13,.03-8.07,2.95-9.4,7.68-.17,.71-.34,1.48-.34,2.48l.04,5.67Z"/><path class="c" d="M299.1,25.5c0,1.3-.87,2.43-2.35,2.44-1.3,0-2.19-1.11-2.2-2.41,0-1.3,.99-2.49,2.29-2.5,1.36,0,2.25,1.11,2.26,2.46Zm-3.42,36.46l-.19-28.35,2.78-.02,.19,28.35-2.78,.02Z"/><path class="c" d="M307.74,19.95l2.78-.02,.28,41.93-2.78,.02-.28-41.93Z"/><path class="c" d="M323.96,25.34c0,1.3-.87,2.43-2.35,2.44-1.3,0-2.19-1.11-2.2-2.41,0-1.3,.99-2.49,2.29-2.5,1.36,0,2.25,1.11,2.26,2.46Zm-3.42,36.46l-.19-28.35,2.78-.02,.19,28.35-2.78,.02Z"/><path class="c" d="M336.53,25.14l.05,8.21,8.09-.05v2.24l-8.08,.05,.12,18.42c.02,3.6,1.16,5.9,4.17,5.88,1.48,0,2.54-.25,3.24-.49l.37,2.18c-.94,.36-2.24,.66-3.95,.68-2.07,.01-3.78-.62-4.85-1.98-1.31-1.47-1.8-3.83-1.82-6.72l-.12-17.95-4.78,.03v-2.24l4.77-.03-.05-7.32,2.83-.9Z"/><path class="c" d="M350.46,33.25l7.56,18.49c.78,2,1.56,4.24,2.11,6.07h.12c.58-1.78,1.27-3.97,2.14-6.28l6.79-18.41,3.01-.02-8.36,21.2c-3.37,8.82-5.75,14.09-9.45,17.37-2.23,1.9-4.23,2.74-4.94,2.98l-.9-2.36c1.41-.54,3.3-1.56,4.94-3.22,1.41-1.37,3.28-3.74,4.68-7.12,.23-.65,.35-.95,.35-1.24,0-.3-.12-.65-.36-1.24l-10.69-26.21,3.01-.02Z"/><path class="c" d="M390.48,22.06c3.01-.49,6.43-.87,10.15-.89,7.26-.05,12.77,1.86,16.1,5.33,3.21,3.29,5.01,7.7,5.05,13.73,.04,5.85-1.52,11.17-5.1,15.15-3.52,3.86-9.47,6.14-17.14,6.2-3.07,.02-5.97-.02-8.8-.29l-.26-39.21Zm3.02,36.89c1.66,.23,3.96,.27,6.44,.25,12.76-.09,19.03-7.27,18.95-18.79,0-10.1-5.67-16.97-18.42-16.89-3.07,.02-5.49,.33-7.2,.64l.23,34.78Z"/><path class="c" d="M432.3,24.62c0,1.3-.87,2.43-2.35,2.44-1.3,0-2.19-1.11-2.2-2.41,0-1.3,.99-2.49,2.29-2.5,1.36,0,2.25,1.11,2.26,2.46Zm-3.42,36.46l-.19-28.35,2.78-.02,.19,28.35-2.78,.02Z"/><path class="c" d="M441.09,41.16c-.02-2.84-.16-5.79-.29-8.5l2.6-.02,.16,5.73h.12c1.22-3.55,4.15-6.41,8.05-6.43,.35,0,.77,.05,1.12,.11l.02,2.72c-.41-.11-.83-.11-1.36-.11-3.9,.03-6.65,3.41-7.39,7.96-.11,.83-.22,1.77-.22,2.72l.1,15.65-2.78,.02-.13-19.84Z"/><path class="c" d="M458.3,46.41c.06,9.09,5.04,12.6,10.89,12.57,4.13-.03,6.26-.87,7.84-1.65l.72,2.24c-1.06,.6-3.95,1.8-8.91,1.83-8.15,.05-13.27-5.82-13.32-14.14-.06-9.45,5.33-15.39,12.65-15.44,9.27-.06,11.1,8.67,11.13,12.74,0,.77,0,1.24-.11,1.71l-20.91,.14Zm18.06-2.36c.03-3.96-1.66-9.97-8.51-9.92-6.26,.04-8.94,5.67-9.38,10.04l17.89-.12Z"/><path class="c" d="M506.16,59.32c-1.24,.66-4.18,1.86-8.26,1.89-8.21,.05-13.68-5.82-13.74-14.38-.06-8.98,6.04-15.16,14.54-15.22,3.48-.02,6.33,.96,7.45,1.72l-.99,2.31c-1.42-.76-3.61-1.63-6.74-1.61-7.62,.05-11.48,5.92-11.43,12.6,.05,7.38,4.75,12.19,11.3,12.15,3.37-.02,5.55-.98,7.08-1.64l.78,2.18Z"/><path class="c" d="M517.26,23.93l.05,8.21,8.09-.05v2.24l-8.08,.05,.12,18.42c.02,3.6,1.16,5.9,4.17,5.88,1.48,0,2.54-.25,3.24-.49l.37,2.18c-.94,.36-2.24,.66-3.95,.68-2.07,.01-3.78-.63-4.85-1.98-1.31-1.47-1.8-3.83-1.82-6.72l-.12-17.95-4.78,.03v-2.24l4.77-.03-.05-7.32,2.83-.91Z"/></g><g><g><polygon class="e" points="10.02 9.27 5.01 17.94 .01 9.27 10.02 9.27"/><polygon class="h" points="15.02 17.95 5.01 17.94 10.02 9.27 15.02 17.95"/><polygon class="i" points="10.01 26.62 5.01 17.94 15.02 17.95 10.01 26.62"/><polygon class="j" points="0 26.6 5.01 17.94 10.01 26.62 0 26.6"/><polygon class="g" points="15.88 17.34 20.88 8.67 25.88 17.34 15.88 17.34"/><polygon class="f" points="10.88 8.67 20.88 8.67 15.88 17.34 10.88 8.67"/><polygon class="d" points="15.89 0 20.88 8.67 10.88 8.67 15.89 0"/><polygon class="b" points="25.89 .02 20.88 8.67 15.89 0 25.89 .02"/></g><g><path class="c" d="M36.99,63.49h-4.42v-.81h9.82v.81h-4.44v12.79h-.97v-12.79Z"/><path class="c" d="M44.99,69.5c0-.97-.04-1.98-.08-2.9h.89l.04,1.96h.04c.42-1.21,1.43-2.18,2.76-2.18,.12,0,.26,.02,.38,.04v.93c-.14-.04-.28-.04-.46-.04-1.33,0-2.28,1.15-2.54,2.7-.04,.28-.08,.6-.08,.93v5.35h-.95v-6.78Z"/><path class="c" d="M58.24,76.28l-.14-1.39h-.06c-.46,.75-1.53,1.61-3.09,1.61-1.94,0-2.84-1.37-2.84-2.66,0-2.24,1.98-3.59,5.91-3.55v-.24c0-.97-.18-2.89-2.48-2.87-.85,0-1.74,.22-2.42,.73l-.3-.71c.87-.59,1.96-.83,2.82-.83,2.8,0,3.33,2.1,3.33,3.83v3.77c0,.77,.04,1.55,.14,2.3h-.87Zm-.22-5.19c-2.12-.06-4.9,.26-4.9,2.58,0,1.39,.93,2.02,1.94,2.02,1.61,0,2.52-.99,2.86-1.94,.06-.2,.1-.4,.1-.59v-2.08Z"/><path class="c" d="M64.13,68.92c0-.89-.04-1.55-.08-2.32h.89l.08,1.75h.04c.52-1.09,1.74-1.98,3.33-1.98,.93,0,3.37,.46,3.37,4.09v5.81h-.95v-5.73c0-1.76-.69-3.35-2.68-3.35-1.37,0-2.52,.97-2.91,2.22-.08,.24-.14,.56-.14,.87v5.99h-.95v-7.36Z"/><path class="c" d="M76.55,75.01c.52,.32,1.31,.67,2.18,.67,1.53,0,2.26-.83,2.26-1.84,0-1.07-.65-1.63-2.04-2.2-1.59-.6-2.46-1.47-2.46-2.64,0-1.39,1.09-2.62,2.98-2.62,.89,0,1.63,.26,2.14,.6l-.38,.79c-.32-.24-.95-.59-1.92-.59-1.23,0-1.88,.79-1.88,1.67,0,1.01,.69,1.45,2,2,1.57,.61,2.5,1.39,2.5,2.87,0,1.65-1.29,2.76-3.27,2.76-.95,0-1.82-.26-2.46-.67l.34-.81Z"/><path class="c" d="M87.74,63.84c0,.44-.3,.83-.81,.83-.44,0-.75-.38-.75-.83s.34-.85,.79-.85,.77,.38,.77,.85Zm-1.25,12.45v-9.68h.95v9.68h-.95Z"/><path class="c" d="M94.05,63.8v2.8h2.76v.77h-2.76v6.29c0,1.23,.38,2.02,1.41,2.02,.5,0,.87-.08,1.11-.16l.12,.75c-.32,.12-.77,.22-1.35,.22-.71,0-1.29-.22-1.65-.69-.44-.5-.61-1.31-.61-2.3v-6.13h-1.63v-.77h1.63v-2.5l.97-.3Z"/></g><g><path class="c" d="M49.13,45.07c-1.99,0-2.21-1.29-2.21-1.85v-12.58l-10.37,13.39c-.54,.69-1.26,1.04-2.14,1.04s-1.6-.35-2.14-1.03l-10.31-13.36v12.55c0,.56-.22,1.85-2.24,1.85s-2.18-1.29-2.18-1.85V24.81c0-1.23,.83-1.97,2.21-1.97,.99,0,1.71,.35,2.32,1.12l12.34,16.04,12.4-16.01c.45-.57,1.08-1.16,2.29-1.16,1.4,0,2.24,.74,2.24,1.97v18.41c0,1.16-.83,1.85-2.21,1.85Z"/><path class="c" d="M65.95,45.07c-2.02,0-2.24-1.29-2.24-1.85V26.63h-7.6c-1.88,0-2.09-1.27-2.09-1.82,0-1.14,.78-1.82,2.09-1.82h19.58c1.33,0,2.12,.67,2.12,1.79,0,.56-.21,1.85-2.12,1.85h-7.57v16.59c0,.56-.21,1.85-2.18,1.85Z"/><path class="c" d="M112.13,45.07c-1.99,0-2.21-1.29-2.21-1.85v-12.58l-10.37,13.39c-.54,.69-1.26,1.04-2.14,1.04s-1.6-.35-2.14-1.03l-10.31-13.36v12.55c0,.56-.22,1.85-2.24,1.85s-2.18-1.29-2.18-1.85V24.81c0-1.23,.83-1.97,2.21-1.97,.99,0,1.71,.35,2.32,1.12l12.34,16.04,12.4-16.01c.45-.57,1.08-1.16,2.29-1.16,1.4,0,2.24,.74,2.24,1.97v18.41c0,1.16-.83,1.85-2.21,1.85Z"/></g></g></svg>