<?xml version="1.0" encoding="utf-8"?>
<!-- Generator: Adobe Illustrator 26.2.1, SVG Export Plug-In . SVG Version: 6.00 Build 0)  -->
<svg version="1.1" id="Layer_1" xmlns="http://www.w3.org/2000/svg" xmlns:xlink="http://www.w3.org/1999/xlink" x="0px" y="0px"
	 viewBox="0 0 379.5 150.9" style="enable-background:new 0 0 379.5 150.9;" xml:space="preserve">
<style type="text/css">
	.st0{enable-background:new    ;}
	.st1{fill:#A6A7AA;}
	.st2{fill:#BCCE3A;}
	.st3{fill:#F0812B;}
	.st4{fill:#B985BE;}
</style>
<g>
	<g id="a">
		<g>
			<g>
				<g class="st0">
					<path class="st1" d="M31.9,121.4c0-3.1-0.1-5.5-0.2-7.8H34l0.2,4.7h0.1c1.7-3.3,4.8-5.2,9.1-5.2c6.3,0,10.6,5.2,10.6,12.4
						c0,8.8-5.2,13.3-11.2,13.3c-3.5,0-6.7-1.6-8.3-4.6h-0.1v14.1h-2.4V121.4z M34.3,128.4c0,0.7,0.1,1.3,0.2,1.9
						c1,3.8,4.3,6.2,8.1,6.2c5.6,0,8.9-4.6,8.9-11.1c0-5.5-3.1-10.6-8.7-10.6c-3.6,0-7.1,2.5-8.1,6.6c-0.2,0.7-0.4,1.4-0.4,2.1
						V128.4z"/>
				</g>
				<g class="st0">
					<path class="st1" d="M60.2,120.9c0-2.5-0.1-5-0.2-7.4h2.3l0.1,5h0.1c1.1-3.1,3.6-5.5,7-5.5c0.3,0,0.7,0.1,1,0.1v2.4
						c-0.4-0.1-0.7-0.1-1.2-0.1c-3.4,0-5.8,2.9-6.5,6.9c-0.1,0.7-0.2,1.5-0.2,2.4v13.6h-2.4V120.9z"/>
				</g>
				<g class="st0">
					<path class="st1" d="M95.8,125.6c0,9.2-6.3,13.1-11.8,13.1c-6.4,0-11.3-5-11.3-12.7c0-8.5,5.5-13.1,11.6-13.1
						C91.2,113,95.8,118,95.8,125.6z M75.2,125.9c0,6.1,3.9,10.8,9,10.8c5.1,0,9.2-4.6,9.2-10.9c0-4.5-2.6-10.8-9-10.8
						C78,115,75.2,120.6,75.2,125.9z"/>
					<path class="st1" d="M119,137c-1.1,0.6-3.6,1.6-7.2,1.6c-7.1,0-11.8-5.1-11.8-12.5c0-7.8,5.3-13.1,12.7-13.1
						c3,0,5.5,0.9,6.5,1.5l-0.9,2c-1.2-0.7-3.1-1.4-5.8-1.4c-6.6,0-10,5.1-10,10.9c0,6.4,4,10.6,9.7,10.6c2.9,0,4.8-0.8,6.1-1.4
						L119,137z"/>
					<path class="st1" d="M125.2,125.6c0,7.9,4.3,11,9.4,11c3.6,0,5.4-0.7,6.8-1.4l0.6,1.9c-0.9,0.5-3.4,1.5-7.7,1.5
						c-7.1,0-11.5-5.1-11.5-12.3c0-8.2,4.7-13.3,11.1-13.3c8,0,9.6,7.6,9.6,11.1c0,0.7,0,1.1-0.1,1.5H125.2z M140.9,123.6
						c0.1-3.4-1.4-8.7-7.3-8.7c-5.4,0-7.8,4.9-8.2,8.7H140.9z"/>
					<path class="st1" d="M148.7,134.9c1.3,0.8,3.3,1.7,5.5,1.7c3.9,0,5.7-2.1,5.7-4.7c0-2.7-1.6-4.1-5.2-5.6
						c-4-1.5-6.2-3.7-6.2-6.7c0-3.5,2.8-6.7,7.6-6.7c2.3,0,4.1,0.7,5.4,1.5l-1,2c-0.8-0.6-2.4-1.5-4.9-1.5c-3.1,0-4.8,2-4.8,4.3
						c0,2.6,1.7,3.7,5.1,5.1c4,1.5,6.4,3.5,6.4,7.3c0,4.2-3.3,7-8.3,7c-2.4,0-4.6-0.7-6.2-1.7L148.7,134.9z"/>
					<path class="st1" d="M167.8,134.9c1.3,0.8,3.3,1.7,5.5,1.7c3.9,0,5.7-2.1,5.7-4.7c0-2.7-1.6-4.1-5.2-5.6
						c-4-1.5-6.2-3.7-6.2-6.7c0-3.5,2.8-6.7,7.6-6.7c2.3,0,4.1,0.7,5.4,1.5l-1,2c-0.8-0.6-2.4-1.5-4.9-1.5c-3.1,0-4.8,2-4.8,4.3
						c0,2.6,1.7,3.7,5.1,5.1c4,1.5,6.4,3.5,6.4,7.3c0,4.2-3.3,7-8.3,7c-2.4,0-4.6-0.7-6.2-1.7L167.8,134.9z"/>
				</g>
				<g class="st0">
					<path class="st1" d="M288.8,36v3.1h3V40h-3v6.9c0,1.4,0.4,2.2,1.6,2.2c0.6,0,1-0.1,1.2-0.2l0.1,0.8c-0.4,0.1-0.8,0.2-1.5,0.2
						c-0.8,0-1.4-0.2-1.8-0.8c-0.5-0.6-0.7-1.4-0.7-2.5V40H286v-0.8h1.8v-2.7L288.8,36z"/>
					<path class="st1" d="M294.2,34h1v7h0c0.3-0.6,0.8-1.2,1.5-1.6c0.6-0.4,1.3-0.6,2.1-0.6c1,0,3.7,0.5,3.7,4.5v6.4h-1v-6.3
						c0-1.9-0.8-3.7-2.9-3.7c-1.5,0-2.8,1.1-3.2,2.4c-0.1,0.3-0.2,0.6-0.2,1v6.5h-1V34z"/>
					<path class="st1" d="M306.2,44.3c0,3.4,1.9,4.7,4.1,4.7c1.6,0,2.3-0.3,2.9-0.6l0.3,0.8c-0.4,0.2-1.5,0.7-3.3,0.7
						c-3.1,0-5-2.2-5-5.3c0-3.5,2-5.8,4.8-5.8c3.5,0,4.1,3.3,4.1,4.8c0,0.3,0,0.5,0,0.6H306.2z M313,43.5c0-1.5-0.6-3.7-3.2-3.7
						c-2.3,0-3.4,2.1-3.5,3.7H313z"/>
				</g>
				<g class="st0">
					<path class="st2" d="M8.1,12v7.6h7.5v2.1H8.1v17.1c0,3.3,1,5.5,3.8,5.5c1.4,0,2.4-0.2,3-0.4l0.3,2c-0.9,0.3-2.1,0.6-3.7,0.6
						c-1.9,0-3.5-0.6-4.5-1.9c-1.2-1.4-1.6-3.6-1.6-6.3V21.7H1v-2.1h4.4v-6.8L8.1,12z"/>
					<path class="st2" d="M21.4,27.5c0-2.6-0.1-5.4-0.2-7.9h2.4l0.1,5.3h0.1c1.2-3.3,3.9-5.9,7.5-5.9c0.3,0,0.7,0.1,1,0.1v2.5
						c-0.4-0.1-0.8-0.1-1.3-0.1c-3.6,0-6.2,3.1-6.9,7.4c-0.1,0.8-0.2,1.6-0.2,2.5V46h-2.6V27.5z"/>
					<path class="st2" d="M52,46l-0.4-3.8h-0.2c-1.3,2-4.2,4.4-8.4,4.4c-5.3,0-7.7-3.7-7.7-7.2c0-6.1,5.4-9.8,16.1-9.7V29
						c0-2.6-0.5-7.9-6.8-7.8c-2.3,0-4.7,0.6-6.6,2l-0.8-1.9c2.4-1.6,5.3-2.3,7.7-2.3c7.6,0,9.1,5.7,9.1,10.4v10.3
						c0,2.1,0.1,4.2,0.4,6.3H52z M51.4,31.9c-5.8-0.2-13.3,0.7-13.3,7c0,3.8,2.5,5.5,5.3,5.5c4.4,0,6.9-2.7,7.8-5.3
						c0.2-0.5,0.3-1.1,0.3-1.6V31.9z"/>
					<path class="st2" d="M62.6,25.9c0-2.4-0.1-4.2-0.2-6.3h2.4l0.2,4.8h0.1c1.4-3,4.7-5.4,9.1-5.4c2.5,0,9.2,1.3,9.2,11.1V46h-2.6
						V30.4c0-4.8-1.9-9.1-7.3-9.1c-3.7,0-6.9,2.6-7.9,6c-0.2,0.7-0.4,1.5-0.4,2.4V46h-2.6V25.9z"/>
					<path class="st2" d="M90.9,42.5c1.4,0.9,3.6,1.8,5.9,1.8c4.2,0,6.2-2.3,6.2-5c0-2.9-1.8-4.4-5.5-6c-4.3-1.6-6.7-4-6.7-7.2
						c0-3.8,3-7.1,8.1-7.1c2.4,0,4.4,0.7,5.8,1.6l-1,2.1c-0.9-0.7-2.6-1.6-5.2-1.6c-3.4,0-5.1,2.1-5.1,4.6c0,2.7,1.9,4,5.4,5.4
						c4.3,1.6,6.8,3.8,6.8,7.8c0,4.5-3.5,7.5-8.9,7.5c-2.6,0-4.9-0.7-6.7-1.8L90.9,42.5z"/>
				</g>
				<g class="st0">
					<path class="st2" d="M112.6,46V21.7h-3.8v-2.1h3.8v-1.4c0-4.1,0.8-7.4,2.9-9.5c1.6-1.6,3.8-2.3,5.8-2.3c1.7,0,3.2,0.4,4,0.9
						l-0.8,2.1c-0.7-0.4-1.8-0.8-3.4-0.8c-4.9,0-5.9,4.5-5.9,9.6v1.5h7.1v2.1h-7.1V46H112.6z"/>
				</g>
				<g class="st0">
					<path class="st2" d="M148.6,32.5c0,9.9-6.8,14.1-12.6,14.1c-6.8,0-12.1-5.3-12.1-13.6c0-9.1,5.9-14,12.5-14
						C143.6,19,148.6,24.4,148.6,32.5z M126.5,32.8c0,6.6,4.2,11.5,9.6,11.5c5.5,0,9.8-4.9,9.8-11.7c0-4.8-2.7-11.5-9.7-11.5
						C129.6,21.1,126.5,27.2,126.5,32.8z"/>
				</g>
				<g class="st0">
					<path class="st2" d="M155.3,27.5c0-2.6-0.1-5.4-0.2-7.9h2.4l0.1,5.3h0.1c1.2-3.3,3.9-5.9,7.5-5.9c0.3,0,0.7,0.1,1,0.1v2.5
						c-0.4-0.1-0.8-0.1-1.3-0.1c-3.6,0-6.2,3.1-6.9,7.4c-0.1,0.8-0.2,1.6-0.2,2.5V46h-2.6V27.5z"/>
				</g>
				<g class="st0">
					<path class="st2" d="M171.8,25.9c0-2.4-0.1-4.2-0.2-6.3h2.4l0.2,4.7h0.1c1.6-3,4.2-5.3,8.5-5.3c3.7,0,6.5,2.4,7.6,5.8h0.1
						c0.8-1.6,1.7-2.7,2.7-3.6c1.7-1.4,3.5-2.2,6.3-2.2c2.6,0,8.6,1.4,8.6,11.4V46h-2.6V30.7c0-5.9-2.3-9.4-6.9-9.4
						c-3.3,0-5.9,2.4-6.9,5.2c-0.3,0.8-0.5,1.6-0.5,2.6V46h-2.6V29.5c0-4.8-2.3-8.2-6.5-8.2c-3.6,0-6.3,2.9-7.3,5.9
						c-0.3,0.7-0.4,1.6-0.4,2.5V46h-2.6V25.9z"/>
					<path class="st2" d="M220.2,12.1c0,1.2-0.8,2.3-2.2,2.3c-1.2,0-2-1-2-2.3c0-1.2,0.9-2.3,2.1-2.3
						C219.4,9.8,220.2,10.8,220.2,12.1z M216.8,46V19.6h2.6V46H216.8z"/>
					<path class="st2" d="M228.3,25.9c0-2.4-0.1-4.2-0.2-6.3h2.4l0.2,4.8h0.1c1.4-3,4.7-5.4,9.1-5.4c2.5,0,9.2,1.3,9.2,11.1V46h-2.6
						V30.4c0-4.8-1.9-9.1-7.3-9.1c-3.7,0-6.9,2.6-7.9,6c-0.2,0.7-0.4,1.5-0.4,2.4V46h-2.6V25.9z"/>
					<path class="st2" d="M278.9,19.6c-0.1,2-0.2,4.1-0.2,6.8v15.7c0,6.8-1.4,10.1-3.6,12.2c-2.4,2.3-6,3.1-9,3.1
						c-3,0-6.4-0.8-8.3-2.3l0.9-2.1c1.8,1.2,4.4,2.2,7.8,2.2c5.5,0,9.6-2.9,9.6-10.7v-3.7H276c-1.4,2.7-4.4,5.1-9.2,5.1
						c-6.6,0-11.3-5.8-11.3-13c0-9.2,6-14,11.9-14c5.2,0,7.8,2.9,8.9,5.1h0.1l0.1-4.4H278.9z M276.1,29.7c0-0.9-0.1-1.8-0.3-2.5
						c-1.1-3.2-3.9-6-8.2-6c-5.6,0-9.4,4.6-9.4,11.6c0,5.9,3.1,11,9.3,11c3.5,0,6.8-2.1,8.1-5.9c0.3-0.9,0.5-1.9,0.5-2.8V29.7z"/>
				</g>
				<g class="st0">
					<path class="st3" d="M23.8,85.2l-4.7,13.2h-2.7l13.7-37.8h2.6l13.6,37.8h-2.7l-4.8-13.2H23.8z M37.9,83l-4.6-12.6
						c-0.9-2.6-1.4-4.5-2-6.7h-0.1c-0.6,2.2-1.2,4.2-2,6.6L24.6,83H37.9z"/>
				</g>
				<g class="st0">
					<path class="st3" d="M52.1,61.1c2.9-0.4,6.1-0.8,9.6-0.8c6.9,0,12.1,1.9,15.3,5.2c3,3.1,4.7,7.3,4.7,13.1
						c0,5.6-1.5,10.6-4.9,14.4c-3.4,3.6-9,5.8-16.3,5.8c-2.9,0-5.7-0.1-8.4-0.3V61.1z M54.7,96.2c1.6,0.2,3.8,0.3,6.1,0.3
						C73,96.5,79,89.7,79,78.8c0.1-9.6-5.3-16.2-17.4-16.2c-2.9,0-5.2,0.3-6.8,0.6V96.2z"/>
				</g>
				<g class="st0">
					<path class="st3" d="M92.1,85.2l-4.7,13.2h-2.7l13.7-37.8h2.6l13.6,37.8h-2.7l-4.8-13.2H92.1z M106.3,83l-4.6-12.6
						c-0.9-2.6-1.4-4.5-2-6.7h-0.1c-0.6,2.2-1.2,4.2-2,6.6L93,83H106.3z"/>
				</g>
				<g class="st0">
					<path class="st4" d="M129.2,84.9c0,11,6,15.3,13.1,15.3c5,0,7.6-1,9.5-1.9l0.9,2.7c-1.3,0.7-4.8,2.1-10.8,2.1
						c-9.9,0-16-7.1-16-17.2c0-11.4,6.6-18.6,15.4-18.6c11.2,0,13.4,10.6,13.4,15.5c0,0.9,0,1.5-0.1,2.1H129.2z M151.1,82.2
						c0.1-4.8-1.9-12.1-10.2-12.1c-7.6,0-10.9,6.8-11.4,12.1H151.1z"/>
					<path class="st4" d="M163.3,51.7h3.4v50.7h-3.4V51.7z"/>
					<path class="st4" d="M182.9,58.3c0,1.6-1.1,2.9-2.9,2.9c-1.6,0-2.6-1.4-2.6-2.9s1.2-3,2.8-3C181.8,55.3,182.9,56.7,182.9,58.3z
						 M178.5,102.4V68.1h3.4v34.3H178.5z"/>
				</g>
				<g class="st0">
					<path class="st4" d="M221,68.1c-0.1,2.6-0.3,5.3-0.3,8.9v20.4c0,8.8-1.8,13.1-4.6,15.9c-3.1,3-7.8,4.1-11.6,4.1
						c-3.9,0-8.3-1-10.9-2.9l1.2-2.8c2.4,1.6,5.7,2.9,10.1,2.9c7.2,0,12.4-3.7,12.4-13.9v-4.9h-0.1c-1.8,3.5-5.8,6.6-11.9,6.6
						c-8.6,0-14.7-7.5-14.7-16.9c0-11.9,7.9-18.2,15.4-18.2c6.8,0,10.1,3.7,11.6,6.6h0.1l0.1-5.8H221z M217.3,81.3
						c0-1.2-0.1-2.3-0.4-3.3c-1.4-4.1-5.1-7.9-10.6-7.9c-7.3,0-12.3,6-12.3,15.1c0,7.7,4.1,14.4,12.1,14.4c4.6,0,8.9-2.8,10.6-7.7
						c0.4-1.1,0.6-2.4,0.6-3.6V81.3z"/>
				</g>
				<g class="st0">
					<path class="st4" d="M236.1,58.3c0,1.6-1.1,2.9-2.9,2.9c-1.6,0-2.6-1.4-2.6-2.9s1.2-3,2.8-3C235,55.3,236.1,56.7,236.1,58.3z
						 M231.7,102.4V68.1h3.4v34.3H231.7z"/>
					<path class="st4" d="M246.3,102.4c0.1-2.4,0.3-5.4,0.3-8V51.7h3.4v22.8h0.1c2.3-4.4,6.5-7.1,12.6-7.1c8.6,0,14.6,7.2,14.6,17.6
						c0,12.2-7.8,18.3-15.3,18.3c-5.5,0-9.6-2.2-12.3-7h-0.1l-0.2,6.2H246.3z M250,89.2c0,0.8,0.1,1.6,0.3,2.5
						c1.5,5.2,5.9,8.6,11.3,8.6c7.9,0,12.4-6.4,12.4-15.4c0-7.9-4.3-14.9-12.1-14.9c-5,0-9.8,3.5-11.4,9.2c-0.2,0.9-0.4,1.8-0.4,3
						V89.2z"/>
					<path class="st4" d="M290.5,58.3c0,1.6-1.1,2.9-2.9,2.9c-1.6,0-2.6-1.4-2.6-2.9s1.2-3,2.8-3C289.4,55.3,290.5,56.7,290.5,58.3z
						 M286,102.4V68.1h3.4v34.3H286z"/>
					<path class="st4" d="M301,51.7h3.4v50.7H301V51.7z"/>
					<path class="st4" d="M320.5,58.3c0,1.6-1.1,2.9-2.9,2.9c-1.6,0-2.6-1.4-2.6-2.9s1.2-3,2.8-3C319.5,55.3,320.5,56.7,320.5,58.3z
						 M316.1,102.4V68.1h3.4v34.3H316.1z"/>
				</g>
				<g class="st0">
					<path class="st4" d="M335.8,58.2v9.9h9.8v2.7h-9.8v22.3c0,4.4,1.4,7.1,5,7.1c1.8,0,3.1-0.3,3.9-0.6l0.4,2.6
						c-1.1,0.4-2.7,0.8-4.8,0.8c-2.5,0-4.6-0.8-5.9-2.4c-1.6-1.8-2.1-4.6-2.1-8.1V70.8h-5.8v-2.7h5.8v-8.9L335.8,58.2z"/>
				</g>
				<g class="st0">
					<path class="st4" d="M352.5,68.1l9,22.4c0.9,2.4,1.9,5.1,2.5,7.4h0.1c0.7-2.1,1.6-4.8,2.6-7.6l8.4-22.2h3.6l-10.3,25.6
						c-4.1,10.6-7.1,17-11.6,20.9c-2.7,2.3-5.1,3.3-6,3.6l-1.1-2.9c1.7-0.6,4-1.9,6-3.9c1.7-1.6,4-4.5,5.7-8.6
						c0.3-0.8,0.4-1.1,0.4-1.5s-0.1-0.8-0.4-1.5l-12.7-31.8H352.5z"/>
				</g>
			</g>
			<g>
				<g class="st0">
					<path class="st1" d="M31.9,121.4c0-3.1-0.1-5.5-0.2-7.8H34l0.2,4.7h0.1c1.7-3.3,4.8-5.2,9.1-5.2c6.3,0,10.6,5.2,10.6,12.4
						c0,8.8-5.2,13.3-11.2,13.3c-3.5,0-6.7-1.6-8.3-4.6h-0.1v14.1h-2.4V121.4z M34.3,128.4c0,0.7,0.1,1.3,0.2,1.9
						c1,3.8,4.3,6.2,8.1,6.2c5.6,0,8.9-4.6,8.9-11.1c0-5.5-3.1-10.6-8.7-10.6c-3.6,0-7.1,2.5-8.1,6.6c-0.2,0.7-0.4,1.4-0.4,2.1
						V128.4z"/>
				</g>
				<g class="st0">
					<path class="st1" d="M60.2,120.9c0-2.5-0.1-5-0.2-7.4h2.3l0.1,5h0.1c1.1-3.1,3.6-5.5,7-5.5c0.3,0,0.7,0.1,1,0.1v2.4
						c-0.4-0.1-0.7-0.1-1.2-0.1c-3.4,0-5.8,2.9-6.5,6.9c-0.1,0.7-0.2,1.5-0.2,2.4v13.6h-2.4V120.9z"/>
				</g>
				<g class="st0">
					<path class="st1" d="M95.8,125.6c0,9.2-6.3,13.1-11.8,13.1c-6.4,0-11.3-5-11.3-12.7c0-8.5,5.5-13.1,11.6-13.1
						C91.2,113,95.8,118,95.8,125.6z M75.2,125.9c0,6.1,3.9,10.8,9,10.8c5.1,0,9.2-4.6,9.2-10.9c0-4.5-2.6-10.8-9-10.8
						C78,115,75.2,120.6,75.2,125.9z"/>
					<path class="st1" d="M119,137c-1.1,0.6-3.6,1.6-7.2,1.6c-7.1,0-11.8-5.1-11.8-12.5c0-7.8,5.3-13.1,12.7-13.1
						c3,0,5.5,0.9,6.5,1.5l-0.9,2c-1.2-0.7-3.1-1.4-5.8-1.4c-6.6,0-10,5.1-10,10.9c0,6.4,4,10.6,9.7,10.6c2.9,0,4.8-0.8,6.1-1.4
						L119,137z"/>
					<path class="st1" d="M125.2,125.6c0,7.9,4.3,11,9.4,11c3.6,0,5.4-0.7,6.8-1.4l0.6,1.9c-0.9,0.5-3.4,1.5-7.7,1.5
						c-7.1,0-11.5-5.1-11.5-12.3c0-8.2,4.7-13.3,11.1-13.3c8,0,9.6,7.6,9.6,11.1c0,0.7,0,1.1-0.1,1.5H125.2z M140.9,123.6
						c0.1-3.4-1.4-8.7-7.3-8.7c-5.4,0-7.8,4.9-8.2,8.7H140.9z"/>
					<path class="st1" d="M148.7,134.9c1.3,0.8,3.3,1.7,5.5,1.7c3.9,0,5.7-2.1,5.7-4.7c0-2.7-1.6-4.1-5.2-5.6
						c-4-1.5-6.2-3.7-6.2-6.7c0-3.5,2.8-6.7,7.6-6.7c2.3,0,4.1,0.7,5.4,1.5l-1,2c-0.8-0.6-2.4-1.5-4.9-1.5c-3.1,0-4.8,2-4.8,4.3
						c0,2.6,1.7,3.7,5.1,5.1c4,1.5,6.4,3.5,6.4,7.3c0,4.2-3.3,7-8.3,7c-2.4,0-4.6-0.7-6.2-1.7L148.7,134.9z"/>
					<path class="st1" d="M167.8,134.9c1.3,0.8,3.3,1.7,5.5,1.7c3.9,0,5.7-2.1,5.7-4.7c0-2.7-1.6-4.1-5.2-5.6
						c-4-1.5-6.2-3.7-6.2-6.7c0-3.5,2.8-6.7,7.6-6.7c2.3,0,4.1,0.7,5.4,1.5l-1,2c-0.8-0.6-2.4-1.5-4.9-1.5c-3.1,0-4.8,2-4.8,4.3
						c0,2.6,1.7,3.7,5.1,5.1c4,1.5,6.4,3.5,6.4,7.3c0,4.2-3.3,7-8.3,7c-2.4,0-4.6-0.7-6.2-1.7L167.8,134.9z"/>
				</g>
				<g class="st0">
					<path class="st1" d="M288.8,36v3.1h3V40h-3v6.9c0,1.4,0.4,2.2,1.6,2.2c0.6,0,1-0.1,1.2-0.2l0.1,0.8c-0.4,0.1-0.8,0.2-1.5,0.2
						c-0.8,0-1.4-0.2-1.8-0.8c-0.5-0.6-0.7-1.4-0.7-2.5V40H286v-0.8h1.8v-2.7L288.8,36z"/>
					<path class="st1" d="M294.2,34h1v7h0c0.3-0.6,0.8-1.2,1.5-1.6c0.6-0.4,1.3-0.6,2.1-0.6c1,0,3.7,0.5,3.7,4.5v6.4h-1v-6.3
						c0-1.9-0.8-3.7-2.9-3.7c-1.5,0-2.8,1.1-3.2,2.4c-0.1,0.3-0.2,0.6-0.2,1v6.5h-1V34z"/>
					<path class="st1" d="M306.2,44.3c0,3.4,1.9,4.7,4.1,4.7c1.6,0,2.3-0.3,2.9-0.6l0.3,0.8c-0.4,0.2-1.5,0.7-3.3,0.7
						c-3.1,0-5-2.2-5-5.3c0-3.5,2-5.8,4.8-5.8c3.5,0,4.1,3.3,4.1,4.8c0,0.3,0,0.5,0,0.6H306.2z M313,43.5c0-1.5-0.6-3.7-3.2-3.7
						c-2.3,0-3.4,2.1-3.5,3.7H313z"/>
				</g>
				<g class="st0">
					<path class="st2" d="M8.1,12v7.6h7.5v2.1H8.1v17.1c0,3.3,1,5.5,3.8,5.5c1.4,0,2.4-0.2,3-0.4l0.3,2c-0.9,0.3-2.1,0.6-3.7,0.6
						c-1.9,0-3.5-0.6-4.5-1.9c-1.2-1.4-1.6-3.6-1.6-6.3V21.7H1v-2.1h4.4v-6.8L8.1,12z"/>
					<path class="st2" d="M21.4,27.5c0-2.6-0.1-5.4-0.2-7.9h2.4l0.1,5.3h0.1c1.2-3.3,3.9-5.9,7.5-5.9c0.3,0,0.7,0.1,1,0.1v2.5
						c-0.4-0.1-0.8-0.1-1.3-0.1c-3.6,0-6.2,3.1-6.9,7.4c-0.1,0.8-0.2,1.6-0.2,2.5V46h-2.6V27.5z"/>
					<path class="st2" d="M52,46l-0.4-3.8h-0.2c-1.3,2-4.2,4.4-8.4,4.4c-5.3,0-7.7-3.7-7.7-7.2c0-6.1,5.4-9.8,16.1-9.7V29
						c0-2.6-0.5-7.9-6.8-7.8c-2.3,0-4.7,0.6-6.6,2l-0.8-1.9c2.4-1.6,5.3-2.3,7.7-2.3c7.6,0,9.1,5.7,9.1,10.4v10.3
						c0,2.1,0.1,4.2,0.4,6.3H52z M51.4,31.9c-5.8-0.2-13.3,0.7-13.3,7c0,3.8,2.5,5.5,5.3,5.5c4.4,0,6.9-2.7,7.8-5.3
						c0.2-0.5,0.3-1.1,0.3-1.6V31.9z"/>
					<path class="st2" d="M62.6,25.9c0-2.4-0.1-4.2-0.2-6.3h2.4l0.2,4.8h0.1c1.4-3,4.7-5.4,9.1-5.4c2.5,0,9.2,1.3,9.2,11.1V46h-2.6
						V30.4c0-4.8-1.9-9.1-7.3-9.1c-3.7,0-6.9,2.6-7.9,6c-0.2,0.7-0.4,1.5-0.4,2.4V46h-2.6V25.9z"/>
					<path class="st2" d="M90.9,42.5c1.4,0.9,3.6,1.8,5.9,1.8c4.2,0,6.2-2.3,6.2-5c0-2.9-1.8-4.4-5.5-6c-4.3-1.6-6.7-4-6.7-7.2
						c0-3.8,3-7.1,8.1-7.1c2.4,0,4.4,0.7,5.8,1.6l-1,2.1c-0.9-0.7-2.6-1.6-5.2-1.6c-3.4,0-5.1,2.1-5.1,4.6c0,2.7,1.9,4,5.4,5.4
						c4.3,1.6,6.8,3.8,6.8,7.8c0,4.5-3.5,7.5-8.9,7.5c-2.6,0-4.9-0.7-6.7-1.8L90.9,42.5z"/>
				</g>
				<g class="st0">
					<path class="st2" d="M112.6,46V21.7h-3.8v-2.1h3.8v-1.4c0-4.1,0.8-7.4,2.9-9.5c1.6-1.6,3.8-2.3,5.8-2.3c1.7,0,3.2,0.4,4,0.9
						l-0.8,2.1c-0.7-0.4-1.8-0.8-3.4-0.8c-4.9,0-5.9,4.5-5.9,9.6v1.5h7.1v2.1h-7.1V46H112.6z"/>
				</g>
				<g class="st0">
					<path class="st2" d="M148.6,32.5c0,9.9-6.8,14.1-12.6,14.1c-6.8,0-12.1-5.3-12.1-13.6c0-9.1,5.9-14,12.5-14
						C143.6,19,148.6,24.4,148.6,32.5z M126.5,32.8c0,6.6,4.2,11.5,9.6,11.5c5.5,0,9.8-4.9,9.8-11.7c0-4.8-2.7-11.5-9.7-11.5
						C129.6,21.1,126.5,27.2,126.5,32.8z"/>
				</g>
				<g class="st0">
					<path class="st2" d="M155.3,27.5c0-2.6-0.1-5.4-0.2-7.9h2.4l0.1,5.3h0.1c1.2-3.3,3.9-5.9,7.5-5.9c0.3,0,0.7,0.1,1,0.1v2.5
						c-0.4-0.1-0.8-0.1-1.3-0.1c-3.6,0-6.2,3.1-6.9,7.4c-0.1,0.8-0.2,1.6-0.2,2.5V46h-2.6V27.5z"/>
				</g>
				<g class="st0">
					<path class="st2" d="M171.8,25.9c0-2.4-0.1-4.2-0.2-6.3h2.4l0.2,4.7h0.1c1.6-3,4.2-5.3,8.5-5.3c3.7,0,6.5,2.4,7.6,5.8h0.1
						c0.8-1.6,1.7-2.7,2.7-3.6c1.7-1.4,3.5-2.2,6.3-2.2c2.6,0,8.6,1.4,8.6,11.4V46h-2.6V30.7c0-5.9-2.3-9.4-6.9-9.4
						c-3.3,0-5.9,2.4-6.9,5.2c-0.3,0.8-0.5,1.6-0.5,2.6V46h-2.6V29.5c0-4.8-2.3-8.2-6.5-8.2c-3.6,0-6.3,2.9-7.3,5.9
						c-0.3,0.7-0.4,1.6-0.4,2.5V46h-2.6V25.9z"/>
					<path class="st2" d="M220.2,12.1c0,1.2-0.8,2.3-2.2,2.3c-1.2,0-2-1-2-2.3c0-1.2,0.9-2.3,2.1-2.3
						C219.4,9.8,220.2,10.8,220.2,12.1z M216.8,46V19.6h2.6V46H216.8z"/>
					<path class="st2" d="M228.3,25.9c0-2.4-0.1-4.2-0.2-6.3h2.4l0.2,4.8h0.1c1.4-3,4.7-5.4,9.1-5.4c2.5,0,9.2,1.3,9.2,11.1V46h-2.6
						V30.4c0-4.8-1.9-9.1-7.3-9.1c-3.7,0-6.9,2.6-7.9,6c-0.2,0.7-0.4,1.5-0.4,2.4V46h-2.6V25.9z"/>
					<path class="st2" d="M278.9,19.6c-0.1,2-0.2,4.1-0.2,6.8v15.7c0,6.8-1.4,10.1-3.6,12.2c-2.4,2.3-6,3.1-9,3.1
						c-3,0-6.4-0.8-8.3-2.3l0.9-2.1c1.8,1.2,4.4,2.2,7.8,2.2c5.5,0,9.6-2.9,9.6-10.7v-3.7H276c-1.4,2.7-4.4,5.1-9.2,5.1
						c-6.6,0-11.3-5.8-11.3-13c0-9.2,6-14,11.9-14c5.2,0,7.8,2.9,8.9,5.1h0.1l0.1-4.4H278.9z M276.1,29.7c0-0.9-0.1-1.8-0.3-2.5
						c-1.1-3.2-3.9-6-8.2-6c-5.6,0-9.4,4.6-9.4,11.6c0,5.9,3.1,11,9.3,11c3.5,0,6.8-2.1,8.1-5.9c0.3-0.9,0.5-1.9,0.5-2.8V29.7z"/>
				</g>
				<g class="st0">
					<path class="st3" d="M23.8,85.2l-4.7,13.2h-2.7l13.7-37.8h2.6l13.6,37.8h-2.7l-4.8-13.2H23.8z M37.9,83l-4.6-12.6
						c-0.9-2.6-1.4-4.5-2-6.7h-0.1c-0.6,2.2-1.2,4.2-2,6.6L24.6,83H37.9z"/>
				</g>
				<g class="st0">
					<path class="st3" d="M52.1,61.1c2.9-0.4,6.1-0.8,9.6-0.8c6.9,0,12.1,1.9,15.3,5.2c3,3.1,4.7,7.3,4.7,13.1
						c0,5.6-1.5,10.6-4.9,14.4c-3.4,3.6-9,5.8-16.3,5.8c-2.9,0-5.7-0.1-8.4-0.3V61.1z M54.7,96.2c1.6,0.2,3.8,0.3,6.1,0.3
						C73,96.5,79,89.7,79,78.8c0.1-9.6-5.3-16.2-17.4-16.2c-2.9,0-5.2,0.3-6.8,0.6V96.2z"/>
				</g>
				<g class="st0">
					<path class="st3" d="M92.1,85.2l-4.7,13.2h-2.7l13.7-37.8h2.6l13.6,37.8h-2.7l-4.8-13.2H92.1z M106.3,83l-4.6-12.6
						c-0.9-2.6-1.4-4.5-2-6.7h-0.1c-0.6,2.2-1.2,4.2-2,6.6L93,83H106.3z"/>
				</g>
				<g class="st0">
					<path class="st4" d="M129.2,84.9c0,11,6,15.3,13.1,15.3c5,0,7.6-1,9.5-1.9l0.9,2.7c-1.3,0.7-4.8,2.1-10.8,2.1
						c-9.9,0-16-7.1-16-17.2c0-11.4,6.6-18.6,15.4-18.6c11.2,0,13.4,10.6,13.4,15.5c0,0.9,0,1.5-0.1,2.1H129.2z M151.1,82.2
						c0.1-4.8-1.9-12.1-10.2-12.1c-7.6,0-10.9,6.8-11.4,12.1H151.1z"/>
					<path class="st4" d="M163.3,51.7h3.4v50.7h-3.4V51.7z"/>
					<path class="st4" d="M182.9,58.3c0,1.6-1.1,2.9-2.9,2.9c-1.6,0-2.6-1.4-2.6-2.9s1.2-3,2.8-3C181.8,55.3,182.9,56.7,182.9,58.3z
						 M178.5,102.4V68.1h3.4v34.3H178.5z"/>
				</g>
				<g class="st0">
					<path class="st4" d="M221,68.1c-0.1,2.6-0.3,5.3-0.3,8.9v20.4c0,8.8-1.8,13.1-4.6,15.9c-3.1,3-7.8,4.1-11.6,4.1
						c-3.9,0-8.3-1-10.9-2.9l1.2-2.8c2.4,1.6,5.7,2.9,10.1,2.9c7.2,0,12.4-3.7,12.4-13.9v-4.9h-0.1c-1.8,3.5-5.8,6.6-11.9,6.6
						c-8.6,0-14.7-7.5-14.7-16.9c0-11.9,7.9-18.2,15.4-18.2c6.8,0,10.1,3.7,11.6,6.6h0.1l0.1-5.8H221z M217.3,81.3
						c0-1.2-0.1-2.3-0.4-3.3c-1.4-4.1-5.1-7.9-10.6-7.9c-7.3,0-12.3,6-12.3,15.1c0,7.7,4.1,14.4,12.1,14.4c4.6,0,8.9-2.8,10.6-7.7
						c0.4-1.1,0.6-2.4,0.6-3.6V81.3z"/>
				</g>
				<g class="st0">
					<path class="st4" d="M236.1,58.3c0,1.6-1.1,2.9-2.9,2.9c-1.6,0-2.6-1.4-2.6-2.9s1.2-3,2.8-3C235,55.3,236.1,56.7,236.1,58.3z
						 M231.7,102.4V68.1h3.4v34.3H231.7z"/>
					<path class="st4" d="M246.3,102.4c0.1-2.4,0.3-5.4,0.3-8V51.7h3.4v22.8h0.1c2.3-4.4,6.5-7.1,12.6-7.1c8.6,0,14.6,7.2,14.6,17.6
						c0,12.2-7.8,18.3-15.3,18.3c-5.5,0-9.6-2.2-12.3-7h-0.1l-0.2,6.2H246.3z M250,89.2c0,0.8,0.1,1.6,0.3,2.5
						c1.5,5.2,5.9,8.6,11.3,8.6c7.9,0,12.4-6.4,12.4-15.4c0-7.9-4.3-14.9-12.1-14.9c-5,0-9.8,3.5-11.4,9.2c-0.2,0.9-0.4,1.8-0.4,3
						V89.2z"/>
					<path class="st4" d="M290.5,58.3c0,1.6-1.1,2.9-2.9,2.9c-1.6,0-2.6-1.4-2.6-2.9s1.2-3,2.8-3C289.4,55.3,290.5,56.7,290.5,58.3z
						 M286,102.4V68.1h3.4v34.3H286z"/>
					<path class="st4" d="M301,51.7h3.4v50.7H301V51.7z"/>
					<path class="st4" d="M320.5,58.3c0,1.6-1.1,2.9-2.9,2.9c-1.6,0-2.6-1.4-2.6-2.9s1.2-3,2.8-3C319.5,55.3,320.5,56.7,320.5,58.3z
						 M316.1,102.4V68.1h3.4v34.3H316.1z"/>
				</g>
				<g class="st0">
					<path class="st4" d="M335.8,58.2v9.9h9.8v2.7h-9.8v22.3c0,4.4,1.4,7.1,5,7.1c1.8,0,3.1-0.3,3.9-0.6l0.4,2.6
						c-1.1,0.4-2.7,0.8-4.8,0.8c-2.5,0-4.6-0.8-5.9-2.4c-1.6-1.8-2.1-4.6-2.1-8.1V70.8h-5.8v-2.7h5.8v-8.9L335.8,58.2z"/>
				</g>
				<g class="st0">
					<path class="st4" d="M352.5,68.1l9,22.4c0.9,2.4,1.9,5.1,2.5,7.4h0.1c0.7-2.1,1.6-4.8,2.6-7.6l8.4-22.2h3.6l-10.3,25.6
						c-4.1,10.6-7.1,17-11.6,20.9c-2.7,2.3-5.1,3.3-6,3.6l-1.1-2.9c1.7-0.6,4-1.9,6-3.9c1.7-1.6,4-4.5,5.7-8.6
						c0.3-0.8,0.4-1.1,0.4-1.5s-0.1-0.8-0.4-1.5l-12.7-31.8H352.5z"/>
				</g>
			</g>
			<g>
				<g class="st0">
					<path class="st1" d="M31.9,121.4c0-3.1-0.1-5.5-0.2-7.8H34l0.2,4.7h0.1c1.7-3.3,4.8-5.2,9.1-5.2c6.3,0,10.6,5.2,10.6,12.4
						c0,8.8-5.2,13.3-11.2,13.3c-3.5,0-6.7-1.6-8.3-4.6h-0.1v14.1h-2.4V121.4z M34.3,128.4c0,0.7,0.1,1.3,0.2,1.9
						c1,3.8,4.3,6.2,8.1,6.2c5.6,0,8.9-4.6,8.9-11.1c0-5.5-3.1-10.6-8.7-10.6c-3.6,0-7.1,2.5-8.1,6.6c-0.2,0.7-0.4,1.4-0.4,2.1
						V128.4z"/>
				</g>
				<g class="st0">
					<path class="st1" d="M60.2,120.9c0-2.5-0.1-5-0.2-7.4h2.3l0.1,5h0.1c1.1-3.1,3.6-5.5,7-5.5c0.3,0,0.7,0.1,1,0.1v2.4
						c-0.4-0.1-0.7-0.1-1.2-0.1c-3.4,0-5.8,2.9-6.5,6.9c-0.1,0.7-0.2,1.5-0.2,2.4v13.6h-2.4V120.9z"/>
				</g>
				<g class="st0">
					<path class="st1" d="M95.8,125.6c0,9.2-6.3,13.1-11.8,13.1c-6.4,0-11.3-5-11.3-12.7c0-8.5,5.5-13.1,11.6-13.1
						C91.2,113,95.8,118,95.8,125.6z M75.2,125.9c0,6.1,3.9,10.8,9,10.8c5.1,0,9.2-4.6,9.2-10.9c0-4.5-2.6-10.8-9-10.8
						C78,115,75.2,120.6,75.2,125.9z"/>
					<path class="st1" d="M119,137c-1.1,0.6-3.6,1.6-7.2,1.6c-7.1,0-11.8-5.1-11.8-12.5c0-7.8,5.3-13.1,12.7-13.1
						c3,0,5.5,0.9,6.5,1.5l-0.9,2c-1.2-0.7-3.1-1.4-5.8-1.4c-6.6,0-10,5.1-10,10.9c0,6.4,4,10.6,9.7,10.6c2.9,0,4.8-0.8,6.1-1.4
						L119,137z"/>
					<path class="st1" d="M125.2,125.6c0,7.9,4.3,11,9.4,11c3.6,0,5.4-0.7,6.8-1.4l0.6,1.9c-0.9,0.5-3.4,1.5-7.7,1.5
						c-7.1,0-11.5-5.1-11.5-12.3c0-8.2,4.7-13.3,11.1-13.3c8,0,9.6,7.6,9.6,11.1c0,0.7,0,1.1-0.1,1.5H125.2z M140.9,123.6
						c0.1-3.4-1.4-8.7-7.3-8.7c-5.4,0-7.8,4.9-8.2,8.7H140.9z"/>
					<path class="st1" d="M148.7,134.9c1.3,0.8,3.3,1.7,5.5,1.7c3.9,0,5.7-2.1,5.7-4.7c0-2.7-1.6-4.1-5.2-5.6
						c-4-1.5-6.2-3.7-6.2-6.7c0-3.5,2.8-6.7,7.6-6.7c2.3,0,4.1,0.7,5.4,1.5l-1,2c-0.8-0.6-2.4-1.5-4.9-1.5c-3.1,0-4.8,2-4.8,4.3
						c0,2.6,1.7,3.7,5.1,5.1c4,1.5,6.4,3.5,6.4,7.3c0,4.2-3.3,7-8.3,7c-2.4,0-4.6-0.7-6.2-1.7L148.7,134.9z"/>
					<path class="st1" d="M167.8,134.9c1.3,0.8,3.3,1.7,5.5,1.7c3.9,0,5.7-2.1,5.7-4.7c0-2.7-1.6-4.1-5.2-5.6
						c-4-1.5-6.2-3.7-6.2-6.7c0-3.5,2.8-6.7,7.6-6.7c2.3,0,4.1,0.7,5.4,1.5l-1,2c-0.8-0.6-2.4-1.5-4.9-1.5c-3.1,0-4.8,2-4.8,4.3
						c0,2.6,1.7,3.7,5.1,5.1c4,1.5,6.4,3.5,6.4,7.3c0,4.2-3.3,7-8.3,7c-2.4,0-4.6-0.7-6.2-1.7L167.8,134.9z"/>
				</g>
				<g class="st0">
					<path class="st1" d="M288.8,36v3.1h3V40h-3v6.9c0,1.4,0.4,2.2,1.6,2.2c0.6,0,1-0.1,1.2-0.2l0.1,0.8c-0.4,0.1-0.8,0.2-1.5,0.2
						c-0.8,0-1.4-0.2-1.8-0.8c-0.5-0.6-0.7-1.4-0.7-2.5V40H286v-0.8h1.8v-2.7L288.8,36z"/>
					<path class="st1" d="M294.2,34h1v7h0c0.3-0.6,0.8-1.2,1.5-1.6c0.6-0.4,1.3-0.6,2.1-0.6c1,0,3.7,0.5,3.7,4.5v6.4h-1v-6.3
						c0-1.9-0.8-3.7-2.9-3.7c-1.5,0-2.8,1.1-3.2,2.4c-0.1,0.3-0.2,0.6-0.2,1v6.5h-1V34z"/>
					<path class="st1" d="M306.2,44.3c0,3.4,1.9,4.7,4.1,4.7c1.6,0,2.3-0.3,2.9-0.6l0.3,0.8c-0.4,0.2-1.5,0.7-3.3,0.7
						c-3.1,0-5-2.2-5-5.3c0-3.5,2-5.8,4.8-5.8c3.5,0,4.1,3.3,4.1,4.8c0,0.3,0,0.5,0,0.6H306.2z M313,43.5c0-1.5-0.6-3.7-3.2-3.7
						c-2.3,0-3.4,2.1-3.5,3.7H313z"/>
				</g>
				<g class="st0">
					<path class="st2" d="M8.1,12v7.6h7.5v2.1H8.1v17.1c0,3.3,1,5.5,3.8,5.5c1.4,0,2.4-0.2,3-0.4l0.3,2c-0.9,0.3-2.1,0.6-3.7,0.6
						c-1.9,0-3.5-0.6-4.5-1.9c-1.2-1.4-1.6-3.6-1.6-6.3V21.7H1v-2.1h4.4v-6.8L8.1,12z"/>
					<path class="st2" d="M21.4,27.5c0-2.6-0.1-5.4-0.2-7.9h2.4l0.1,5.3h0.1c1.2-3.3,3.9-5.9,7.5-5.9c0.3,0,0.7,0.1,1,0.1v2.5
						c-0.4-0.1-0.8-0.1-1.3-0.1c-3.6,0-6.2,3.1-6.9,7.4c-0.1,0.8-0.2,1.6-0.2,2.5V46h-2.6V27.5z"/>
					<path class="st2" d="M52,46l-0.4-3.8h-0.2c-1.3,2-4.2,4.4-8.4,4.4c-5.3,0-7.7-3.7-7.7-7.2c0-6.1,5.4-9.8,16.1-9.7V29
						c0-2.6-0.5-7.9-6.8-7.8c-2.3,0-4.7,0.6-6.6,2l-0.8-1.9c2.4-1.6,5.3-2.3,7.7-2.3c7.6,0,9.1,5.7,9.1,10.4v10.3
						c0,2.1,0.1,4.2,0.4,6.3H52z M51.4,31.9c-5.8-0.2-13.3,0.7-13.3,7c0,3.8,2.5,5.5,5.3,5.5c4.4,0,6.9-2.7,7.8-5.3
						c0.2-0.5,0.3-1.1,0.3-1.6V31.9z"/>
					<path class="st2" d="M62.6,25.9c0-2.4-0.1-4.2-0.2-6.3h2.4l0.2,4.8h0.1c1.4-3,4.7-5.4,9.1-5.4c2.5,0,9.2,1.3,9.2,11.1V46h-2.6
						V30.4c0-4.8-1.9-9.1-7.3-9.1c-3.7,0-6.9,2.6-7.9,6c-0.2,0.7-0.4,1.5-0.4,2.4V46h-2.6V25.9z"/>
					<path class="st2" d="M90.9,42.5c1.4,0.9,3.6,1.8,5.9,1.8c4.2,0,6.2-2.3,6.2-5c0-2.9-1.8-4.4-5.5-6c-4.3-1.6-6.7-4-6.7-7.2
						c0-3.8,3-7.1,8.1-7.1c2.4,0,4.4,0.7,5.8,1.6l-1,2.1c-0.9-0.7-2.6-1.6-5.2-1.6c-3.4,0-5.1,2.1-5.1,4.6c0,2.7,1.9,4,5.4,5.4
						c4.3,1.6,6.8,3.8,6.8,7.8c0,4.5-3.5,7.5-8.9,7.5c-2.6,0-4.9-0.7-6.7-1.8L90.9,42.5z"/>
				</g>
				<g class="st0">
					<path class="st2" d="M112.6,46V21.7h-3.8v-2.1h3.8v-1.4c0-4.1,0.8-7.4,2.9-9.5c1.6-1.6,3.8-2.3,5.8-2.3c1.7,0,3.2,0.4,4,0.9
						l-0.8,2.1c-0.7-0.4-1.8-0.8-3.4-0.8c-4.9,0-5.9,4.5-5.9,9.6v1.5h7.1v2.1h-7.1V46H112.6z"/>
				</g>
				<g class="st0">
					<path class="st2" d="M148.6,32.5c0,9.9-6.8,14.1-12.6,14.1c-6.8,0-12.1-5.3-12.1-13.6c0-9.1,5.9-14,12.5-14
						C143.6,19,148.6,24.4,148.6,32.5z M126.5,32.8c0,6.6,4.2,11.5,9.6,11.5c5.5,0,9.8-4.9,9.8-11.7c0-4.8-2.7-11.5-9.7-11.5
						C129.6,21.1,126.5,27.2,126.5,32.8z"/>
				</g>
				<g class="st0">
					<path class="st2" d="M155.3,27.5c0-2.6-0.1-5.4-0.2-7.9h2.4l0.1,5.3h0.1c1.2-3.3,3.9-5.9,7.5-5.9c0.3,0,0.7,0.1,1,0.1v2.5
						c-0.4-0.1-0.8-0.1-1.3-0.1c-3.6,0-6.2,3.1-6.9,7.4c-0.1,0.8-0.2,1.6-0.2,2.5V46h-2.6V27.5z"/>
				</g>
				<g class="st0">
					<path class="st2" d="M171.8,25.9c0-2.4-0.1-4.2-0.2-6.3h2.4l0.2,4.7h0.1c1.6-3,4.2-5.3,8.5-5.3c3.7,0,6.5,2.4,7.6,5.8h0.1
						c0.8-1.6,1.7-2.7,2.7-3.6c1.7-1.4,3.5-2.2,6.3-2.2c2.6,0,8.6,1.4,8.6,11.4V46h-2.6V30.7c0-5.9-2.3-9.4-6.9-9.4
						c-3.3,0-5.9,2.4-6.9,5.2c-0.3,0.8-0.5,1.6-0.5,2.6V46h-2.6V29.5c0-4.8-2.3-8.2-6.5-8.2c-3.6,0-6.3,2.9-7.3,5.9
						c-0.3,0.7-0.4,1.6-0.4,2.5V46h-2.6V25.9z"/>
					<path class="st2" d="M220.2,12.1c0,1.2-0.8,2.3-2.2,2.3c-1.2,0-2-1-2-2.3c0-1.2,0.9-2.3,2.1-2.3
						C219.4,9.8,220.2,10.8,220.2,12.1z M216.8,46V19.6h2.6V46H216.8z"/>
					<path class="st2" d="M228.3,25.9c0-2.4-0.1-4.2-0.2-6.3h2.4l0.2,4.8h0.1c1.4-3,4.7-5.4,9.1-5.4c2.5,0,9.2,1.3,9.2,11.1V46h-2.6
						V30.4c0-4.8-1.9-9.1-7.3-9.1c-3.7,0-6.9,2.6-7.9,6c-0.2,0.7-0.4,1.5-0.4,2.4V46h-2.6V25.9z"/>
					<path class="st2" d="M278.9,19.6c-0.1,2-0.2,4.1-0.2,6.8v15.7c0,6.8-1.4,10.1-3.6,12.2c-2.4,2.3-6,3.1-9,3.1
						c-3,0-6.4-0.8-8.3-2.3l0.9-2.1c1.8,1.2,4.4,2.2,7.8,2.2c5.5,0,9.6-2.9,9.6-10.7v-3.7H276c-1.4,2.7-4.4,5.1-9.2,5.1
						c-6.6,0-11.3-5.8-11.3-13c0-9.2,6-14,11.9-14c5.2,0,7.8,2.9,8.9,5.1h0.1l0.1-4.4H278.9z M276.1,29.7c0-0.9-0.1-1.8-0.3-2.5
						c-1.1-3.2-3.9-6-8.2-6c-5.6,0-9.4,4.6-9.4,11.6c0,5.9,3.1,11,9.3,11c3.5,0,6.8-2.1,8.1-5.9c0.3-0.9,0.5-1.9,0.5-2.8V29.7z"/>
				</g>
				<g class="st0">
					<path class="st3" d="M23.8,85.2l-4.7,13.2h-2.7l13.7-37.8h2.6l13.6,37.8h-2.7l-4.8-13.2H23.8z M37.9,83l-4.6-12.6
						c-0.9-2.6-1.4-4.5-2-6.7h-0.1c-0.6,2.2-1.2,4.2-2,6.6L24.6,83H37.9z"/>
				</g>
				<g class="st0">
					<path class="st3" d="M52.1,61.1c2.9-0.4,6.1-0.8,9.6-0.8c6.9,0,12.1,1.9,15.3,5.2c3,3.1,4.7,7.3,4.7,13.1
						c0,5.6-1.5,10.6-4.9,14.4c-3.4,3.6-9,5.8-16.3,5.8c-2.9,0-5.7-0.1-8.4-0.3V61.1z M54.7,96.2c1.6,0.2,3.8,0.3,6.1,0.3
						C73,96.5,79,89.7,79,78.8c0.1-9.6-5.3-16.2-17.4-16.2c-2.9,0-5.2,0.3-6.8,0.6V96.2z"/>
				</g>
				<g class="st0">
					<path class="st3" d="M92.1,85.2l-4.7,13.2h-2.7l13.7-37.8h2.6l13.6,37.8h-2.7l-4.8-13.2H92.1z M106.3,83l-4.6-12.6
						c-0.9-2.6-1.4-4.5-2-6.7h-0.1c-0.6,2.2-1.2,4.2-2,6.6L93,83H106.3z"/>
				</g>
				<g class="st0">
					<path class="st4" d="M129.2,84.9c0,11,6,15.3,13.1,15.3c5,0,7.6-1,9.5-1.9l0.9,2.7c-1.3,0.7-4.8,2.1-10.8,2.1
						c-9.9,0-16-7.1-16-17.2c0-11.4,6.6-18.6,15.4-18.6c11.2,0,13.4,10.6,13.4,15.5c0,0.9,0,1.5-0.1,2.1H129.2z M151.1,82.2
						c0.1-4.8-1.9-12.1-10.2-12.1c-7.6,0-10.9,6.8-11.4,12.1H151.1z"/>
					<path class="st4" d="M163.3,51.7h3.4v50.7h-3.4V51.7z"/>
					<path class="st4" d="M182.9,58.3c0,1.6-1.1,2.9-2.9,2.9c-1.6,0-2.6-1.4-2.6-2.9s1.2-3,2.8-3C181.8,55.3,182.9,56.7,182.9,58.3z
						 M178.5,102.4V68.1h3.4v34.3H178.5z"/>
				</g>
				<g class="st0">
					<path class="st4" d="M221,68.1c-0.1,2.6-0.3,5.3-0.3,8.9v20.4c0,8.8-1.8,13.1-4.6,15.9c-3.1,3-7.8,4.1-11.6,4.1
						c-3.9,0-8.3-1-10.9-2.9l1.2-2.8c2.4,1.6,5.7,2.9,10.1,2.9c7.2,0,12.4-3.7,12.4-13.9v-4.9h-0.1c-1.8,3.5-5.8,6.6-11.9,6.6
						c-8.6,0-14.7-7.5-14.7-16.9c0-11.9,7.9-18.2,15.4-18.2c6.8,0,10.1,3.7,11.6,6.6h0.1l0.1-5.8H221z M217.3,81.3
						c0-1.2-0.1-2.3-0.4-3.3c-1.4-4.1-5.1-7.9-10.6-7.9c-7.3,0-12.3,6-12.3,15.1c0,7.7,4.1,14.4,12.1,14.4c4.6,0,8.9-2.8,10.6-7.7
						c0.4-1.1,0.6-2.4,0.6-3.6V81.3z"/>
				</g>
				<g class="st0">
					<path class="st4" d="M236.1,58.3c0,1.6-1.1,2.9-2.9,2.9c-1.6,0-2.6-1.4-2.6-2.9s1.2-3,2.8-3C235,55.3,236.1,56.7,236.1,58.3z
						 M231.7,102.4V68.1h3.4v34.3H231.7z"/>
					<path class="st4" d="M246.3,102.4c0.1-2.4,0.3-5.4,0.3-8V51.7h3.4v22.8h0.1c2.3-4.4,6.5-7.1,12.6-7.1c8.6,0,14.6,7.2,14.6,17.6
						c0,12.2-7.8,18.3-15.3,18.3c-5.5,0-9.6-2.2-12.3-7h-0.1l-0.2,6.2H246.3z M250,89.2c0,0.8,0.1,1.6,0.3,2.5
						c1.5,5.2,5.9,8.6,11.3,8.6c7.9,0,12.4-6.4,12.4-15.4c0-7.9-4.3-14.9-12.1-14.9c-5,0-9.8,3.5-11.4,9.2c-0.2,0.9-0.4,1.8-0.4,3
						V89.2z"/>
					<path class="st4" d="M290.5,58.3c0,1.6-1.1,2.9-2.9,2.9c-1.6,0-2.6-1.4-2.6-2.9s1.2-3,2.8-3C289.4,55.3,290.5,56.7,290.5,58.3z
						 M286,102.4V68.1h3.4v34.3H286z"/>
					<path class="st4" d="M301,51.7h3.4v50.7H301V51.7z"/>
					<path class="st4" d="M320.5,58.3c0,1.6-1.1,2.9-2.9,2.9c-1.6,0-2.6-1.4-2.6-2.9s1.2-3,2.8-3C319.5,55.3,320.5,56.7,320.5,58.3z
						 M316.1,102.4V68.1h3.4v34.3H316.1z"/>
				</g>
				<g class="st0">
					<path class="st4" d="M335.8,58.2v9.9h9.8v2.7h-9.8v22.3c0,4.4,1.4,7.1,5,7.1c1.8,0,3.1-0.3,3.9-0.6l0.4,2.6
						c-1.1,0.4-2.7,0.8-4.8,0.8c-2.5,0-4.6-0.8-5.9-2.4c-1.6-1.8-2.1-4.6-2.1-8.1V70.8h-5.8v-2.7h5.8v-8.9L335.8,58.2z"/>
				</g>
				<g class="st0">
					<path class="st4" d="M352.5,68.1l9,22.4c0.9,2.4,1.9,5.1,2.5,7.4h0.1c0.7-2.1,1.6-4.8,2.6-7.6l8.4-22.2h3.6l-10.3,25.6
						c-4.1,10.6-7.1,17-11.6,20.9c-2.7,2.3-5.1,3.3-6,3.6l-1.1-2.9c1.7-0.6,4-1.9,6-3.9c1.7-1.6,4-4.5,5.7-8.6
						c0.3-0.8,0.4-1.1,0.4-1.5s-0.1-0.8-0.4-1.5l-12.7-31.8H352.5z"/>
				</g>
			</g>
		</g>
	</g>
</g>
</svg>
