<?xml version="1.0" encoding="UTF-8"?><svg xmlns="http://www.w3.org/2000/svg" viewBox="0 0 379.54 150.85"><defs><style>.b{letter-spacing:.01em;}.c{letter-spacing:0em;}.d{fill:#bcce3a;font-size:54.92px;}.d,.e,.f,.g,.h{font-family:MyriadPro-Light, Myriad Pro;}.i{letter-spacing:0em;}.j{mix-blend-mode:overlay;}.k{letter-spacing:0em;}.e{font-size:51.22px;}.e,.h{fill:#a6a7aa;}.l{letter-spacing:0em;}.m{letter-spacing:0em;}.n{letter-spacing:0em;}.f{fill:#b985be;font-size:71.43px;}.o{letter-spacing:-.01em;}.g{fill:#f0812b;font-size:56.09px;}.p{letter-spacing:-.02em;}.q{isolation:isolate;}.r{letter-spacing:-.01em;}.h{font-size:22.16px;}</style></defs><g class="q"><g id="a"><g><g><text class="e" transform="translate(27.79 138.11)"><tspan x="0" y="0">p</tspan><tspan class="o" x="28.27" y="0">r</tspan><tspan class="n" x="42.82" y="0">ocess</tspan></text><text class="h" transform="translate(285.57 49.75)"><tspan x="0" y="0">the</tspan></text><text class="d" transform="translate(0 45.97)"><tspan x="0" y="0">trans</tspan><tspan class="p" x="108.03" y="0">f</tspan><tspan class="l" x="121.6" y="0">o</tspan><tspan class="c" x="150.81" y="0">r</tspan><tspan x="167.4" y="0">ming</tspan></text><text class="g" transform="translate(14.69 98.45)"><tspan x="0" y="0">A</tspan><tspan class="r" x="32.81" y="0">D</tspan><tspan class="i" x="68.37" y="0">A</tspan></text><text class="f" transform="translate(122.91 102.42)"><tspan x="0" y="0">eli</tspan><tspan class="m" x="64.71" y="0">g</tspan><tspan x="102.99" y="0">ibili</tspan><tspan class="b" x="202.35" y="0">t</tspan><tspan class="k" x="225.2" y="0">y</tspan></text></g><g class="j"><text class="e" transform="translate(27.79 138.11)"><tspan x="0" y="0">p</tspan><tspan class="o" x="28.27" y="0">r</tspan><tspan class="n" x="42.82" y="0">ocess</tspan></text><text class="h" transform="translate(285.57 49.75)"><tspan x="0" y="0">the</tspan></text><text class="d" transform="translate(0 45.97)"><tspan x="0" y="0">trans</tspan><tspan class="p" x="108.03" y="0">f</tspan><tspan class="l" x="121.6" y="0">o</tspan><tspan class="c" x="150.81" y="0">r</tspan><tspan x="167.4" y="0">ming</tspan></text><text class="g" transform="translate(14.69 98.45)"><tspan x="0" y="0">A</tspan><tspan class="r" x="32.81" y="0">D</tspan><tspan class="i" x="68.37" y="0">A</tspan></text><text class="f" transform="translate(122.91 102.42)"><tspan x="0" y="0">eli</tspan><tspan class="m" x="64.71" y="0">g</tspan><tspan x="102.99" y="0">ibili</tspan><tspan class="b" x="202.35" y="0">t</tspan><tspan class="k" x="225.2" y="0">y</tspan></text></g><g class="j"><text class="e" transform="translate(27.79 138.11)"><tspan x="0" y="0">p</tspan><tspan class="o" x="28.27" y="0">r</tspan><tspan class="n" x="42.82" y="0">ocess</tspan></text><text class="h" transform="translate(285.57 49.75)"><tspan x="0" y="0">the</tspan></text><text class="d" transform="translate(0 45.97)"><tspan x="0" y="0">trans</tspan><tspan class="p" x="108.03" y="0">f</tspan><tspan class="l" x="121.6" y="0">o</tspan><tspan class="c" x="150.81" y="0">r</tspan><tspan x="167.4" y="0">ming</tspan></text><text class="g" transform="translate(14.69 98.45)"><tspan x="0" y="0">A</tspan><tspan class="r" x="32.81" y="0">D</tspan><tspan class="i" x="68.37" y="0">A</tspan></text><text class="f" transform="translate(122.91 102.42)"><tspan x="0" y="0">eli</tspan><tspan class="m" x="64.71" y="0">g</tspan><tspan x="102.99" y="0">ibili</tspan><tspan class="b" x="202.35" y="0">t</tspan><tspan class="k" x="225.2" y="0">y</tspan></text></g></g></g></g></svg>